# xmcd CD database file
# Copyright (C) 1993-1996 Ti Kan
#
# Track frame offsets:
#	150
#	10840
#	25763
#	38305
#	54505
#	69553
#	90743
#	100770
#	109203
#	142183
#
# Disc length: 2021 seconds
#
# Revision: 1
# Processed by: cddbd v1.4b41PL1 Copyright (c) Steve Scherf et al.
# Submitted via: CDValet v3.30 - Copyright (c) 1997 Greg Leichner
#
DISCID=7a07e30a
DTITLE=the Bentonites - Hoedown at Matilda's
DYEAR=1900
DGENRE=
TTITLE0=No Offense Intended
TTITLE1=Every Time I Eat A Popsicle I Think Of You
TTITLE2=Alfalfa Field
TTITLE3=My Daddy's Caddy
TTITLE4=Road-Killed Cow
TTITLE5=Little League Mother (Don't You Want To Play Ball With 
TTITLE5=Me?)
TTITLE6=Kiss Me Where It Counts
TTITLE7=Country Star
TTITLE8=[untitled]
TTITLE9=[untitled]
EXTD=
EXTT0=
EXTT1=
EXTT2=
EXTT3=
EXTT4=
EXTT5=
EXTT6=
EXTT7=
EXTT8=
EXTT9=
PLAYORDER=
